<svg width="800" height="520" viewBox="0 0 800 520" fill="none" xmlns="http://www.w3.org/2000/svg">
  <defs>
    <linearGradient id="sky" x1="0" y1="0" x2="0" y2="1">
      <stop offset="0%" stop-color="#0d2346" />
      <stop offset="70%" stop-color="#2a5298" />
      <stop offset="100%" stop-color="#3db8c0" />
    </linearGradient>
    <linearGradient id="city" x1="0" y1="0" x2="1" y2="1">
      <stop offset="0%" stop-color="#ffffff" stop-opacity="0.9" />
      <stop offset="100%" stop-color="#b7c5e1" stop-opacity="0.7" />
    </linearGradient>
  </defs>
  <rect width="800" height="520" rx="28" fill="url(#sky)" />
  <g fill="url(#city)" fill-opacity="0.9">
    <rect x="90" y="210" width="70" height="210" rx="8" />
    <rect x="180" y="180" width="80" height="240" rx="8" />
    <rect x="280" y="140" width="70" height="280" rx="8" />
    <rect x="360" y="120" width="80" height="300" rx="8" />
    <rect x="460" y="170" width="65" height="250" rx="8" />
    <rect x="540" y="150" width="70" height="270" rx="8" />
    <rect x="620" y="200" width="60" height="220" rx="8" />
  </g>
  <path
    d="M420 80L432 90V420H408V90L420 80ZM432 110H474V420H432V110ZM474 160H504V420H474V160Z"
    fill="#f4f7ff"
    fill-opacity="0.85"
  />
  <circle cx="610" cy="110" r="22" fill="#ffe082" fill-opacity="0.85" />
  <g stroke="#ffffff" stroke-opacity="0.45" stroke-width="1">
    <path d="M120 250H140" />
    <path d="M120 280H150" />
    <path d="M120 310H150" />
    <path d="M205 230H240" />
    <path d="M205 260H250" />
    <path d="M205 290H250" />
    <path d="M305 210H340" />
    <path d="M305 240H340" />
    <path d="M385 200H430" />
    <path d="M385 230H430" />
    <path d="M385 260H430" />
  </g>
  <text x="80" y="470" fill="#ffffff" font-family="'Segoe UI', Arial, sans-serif" font-size="28" font-weight="600">
    Real Estate Hub · Powered by daily Reely data
  </text>
</svg>
